# xmcd CD database file
#
# Track frame offsets:
#	150
#	29866
#	57167
#	86829
#	120940
#	150954
#	181547
#	209006
#	231437
#	258201
#
# Disc length: 3743 seconds
#
# Revision: 0
# Processed by: cddbd v1.5.2PL0 Copyright (c) Steve Scherf et al.
# Submitted via: CDex 1.70beta2
#
DISCID=7e0e9d0a
DTITLE=Oz Noy - Twisted Blues Volume 2
DYEAR=2014
DGENRE=Blues
TTITLE0=You Dig (Feat. Greg Leisz)
TTITLE1=Rhumba Tumba (Feat. Chick Corea)
TTITLE2=Come Let Me Make Your Love Come Down (Feat. Gregoire Maret)
TTITLE3=Come Dance With Me
TTITLE4=E.J.'s Blues (Feat. Eric Johnson)
TTITLE5=Get Down
TTITLE6=Blue Ball Blues (Feat. Warren Haynes)
TTITLE7=Just Groove Me (Feat. Dave Weckl) 
TTITLE8=Slow Grease (Feat. Allen Toussaint)
TTITLE9=Freedom Jazz Dance (Feat. John Medeski)
EXTD=YEAR: 2014
EXTT0=
EXTT1=
EXTT2=
EXTT3=
EXTT4=
EXTT5=
EXTT6=
EXTT7=
EXTT8=
EXTT9=
PLAYORDER=
